<?xml version="1.0" encoding="UTF-8"?>
<svg version="1.1" xmlns="http://www.w3.org/2000/svg" width="222" height="259">
<path d="M0 0 C1.03298721 0.37246857 2.06597443 0.74493713 3.13026428 1.12869263 C4.24114914 1.53530121 5.352034 1.94190979 6.49658203 2.36083984 C7.66849594 2.7852536 8.84040985 3.20966736 10.0478363 3.64694214 C13.21428163 4.79536545 16.37890098 5.94853795 19.54245377 7.10488892 C21.50460212 7.8218532 23.46723167 8.53748407 25.43002319 9.25268555 C32.65095612 11.88415547 39.86887465 14.52375305 47.08496571 17.16846848 C52.13723256 19.01905515 57.1950139 20.85416215 62.25396729 22.68637085 C65.9684741 24.034793 69.6785073 25.39514783 73.38702393 26.75994873 C75.07848875 27.38018079 76.77163392 27.99585102 78.4664917 28.60675049 C80.79277351 29.44660771 83.11198984 30.30362095 85.43017578 31.16552734 C86.09520615 31.40117401 86.76023651 31.63682068 87.44541931 31.87960815 C93.29392175 34.09321204 97.2694021 37.98878908 100.62939453 43.19677734 C103.34953398 50.12076866 101.22351001 58.02042096 99.5090332 64.921875 C99.28286316 65.86352509 99.05669312 66.80517517 98.82366943 67.77536011 C98.07348616 70.8893332 97.31044542 74.00000481 96.54736328 77.11083984 C96.01239619 79.32071607 95.47825842 81.53079319 94.94490051 83.74105835 C93.53177281 89.58775882 92.10785698 95.43177891 90.68151855 101.27526855 C89.27595183 107.04061233 87.87953923 112.80816936 86.48291016 118.57568359 C84.83071902 125.39831538 83.17698173 132.22054599 81.51412964 139.04058838 C78.79323145 150.20807657 76.10554144 161.38175226 73.49121094 172.57470703 C72.99065714 174.70750463 72.48995325 176.840267 71.98908997 178.97299194 C71.05574314 182.9476722 70.13496711 186.92497614 69.22123718 190.90420532 C68.80222699 192.69114172 68.38272517 194.47796293 67.96264648 196.26464844 C67.78458529 197.05676601 67.60652409 197.84888359 67.42306709 198.66500473 C65.74093563 205.7289058 63.56378199 212.65601157 57.18408203 216.70458984 C56.30204102 217.27467773 55.42 217.84476563 54.51123047 218.43212891 C53.56022461 219.01446289 52.60921875 219.59679687 51.62939453 220.19677734 C50.64487305 220.81262695 49.66035156 221.42847656 48.64599609 222.06298828 C45.3646284 224.09275296 42.06241136 226.08595222 38.75439453 228.07177734 C37.54200991 228.8032544 36.32985628 229.53511446 35.11791992 230.26733398 C32.58928228 231.79463534 30.05965753 233.32028164 27.52929688 234.84472656 C21.65414219 238.38593341 15.79014362 241.94553078 9.92645264 245.50567627 C8.09438703 246.61759163 6.26161366 247.72833241 4.42871094 248.83886719 C3.31802246 249.51256348 2.20733398 250.18625977 1.06298828 250.88037109 C-0.40569702 251.77067017 -0.40569702 251.77067017 -1.90405273 252.67895508 C-3.74951187 253.81458009 -5.56765335 254.99480927 -7.37060547 256.19677734 C-11.0128842 255.85521008 -13.64653047 254.68242477 -16.75732422 252.81787109 C-17.60004883 252.31690918 -18.44277344 251.81594727 -19.31103516 251.29980469 C-20.21756836 250.75018066 -21.12410156 250.20055664 -22.05810547 249.63427734 C-23.01491211 249.0614502 -23.97171875 248.48862305 -24.95751953 247.8984375 C-34.74832527 242.01670628 -44.47244402 236.02452168 -54.17919922 230.00537109 C-58.04076482 227.6159566 -61.92112858 225.27050659 -65.84326172 222.98193359 C-66.66858398 222.49547363 -67.49390625 222.00901367 -68.34423828 221.5078125 C-69.84029641 220.62922972 -71.34303369 219.76186171 -72.85400391 218.90917969 C-73.51561523 218.51811035 -74.17722656 218.12704102 -74.85888672 217.72412109 C-75.4213208 217.4017749 -75.98375488 217.07942871 -76.56323242 216.74731445 C-81.99863538 212.084307 -84.23200766 206.6411525 -85.78393555 199.88330078 C-85.98353315 199.07212044 -86.18313076 198.26094009 -86.38877678 197.42517853 C-87.04991306 194.72220285 -87.68872764 192.01446062 -88.32763672 189.30615234 C-88.79876719 187.35967899 -89.27128235 185.41354034 -89.74507141 183.4677124 C-90.76476231 179.26743117 -91.7746597 175.06495415 -92.77740479 170.8605957 C-94.39778778 164.07016006 -96.04564121 157.28654951 -97.69628906 150.50341797 C-100.59178727 138.59050142 -103.45592816 126.67024944 -106.30883789 114.74707031 C-107.7882986 108.56602074 -109.27847369 102.3876003 -110.77060223 96.20959854 C-111.93384293 91.38461837 -113.08911331 86.55775558 -114.24219704 81.73033905 C-114.78896505 79.44752103 -115.33875359 77.16542411 -115.89172935 74.88410187 C-116.65581217 71.72890012 -117.40848597 68.57118114 -118.15844727 65.41259766 C-118.38428497 64.49125534 -118.61012268 63.56991302 -118.84280396 62.62065125 C-120.74820662 54.50061573 -121.54230808 47.82092349 -117.37060547 40.19677734 C-111.73860459 33.0739527 -102.3174119 30.70655474 -94.04638672 27.68505859 C-93.16206467 27.35905167 -92.27774261 27.03304474 -91.36662292 26.69715881 C-88.4732843 25.63132579 -85.57835567 24.5699059 -82.68310547 23.50927734 C-78.56427047 21.99849841 -74.44583547 20.48663345 -70.32763672 18.97412109 C-69.27089752 18.58633484 -68.21415833 18.19854858 -67.12539673 17.79901123 C-60.58812185 15.39535178 -54.06495296 12.95717999 -47.55204773 10.48826599 C-43.34059799 8.89203574 -39.12539763 7.30584201 -34.91000366 5.72006226 C-32.891053 4.95730251 -30.87395751 4.18961333 -28.85879517 3.41690063 C-26.04449309 2.33845486 -23.22412745 1.27759309 -20.40185547 0.22021484 C-19.57260056 -0.10285141 -18.74334564 -0.42591766 -17.88896179 -0.7587738 C-16.72842033 -1.18803917 -16.72842033 -1.18803917 -15.54443359 -1.62597656 C-14.54675964 -2.00539902 -14.54675964 -2.00539902 -13.52893066 -2.39248657 C-8.83606782 -3.28555316 -4.38161167 -1.59154565 0 0 Z M-107.37060547 55.19677734 C-108.7370182 58.05382214 -109.64592862 60.02199732 -108.90869141 63.16772461 C-106.48358251 66.36694366 -103.01963672 67.3703371 -99.38623047 68.78662109 C-98.13570892 69.29261086 -98.13570892 69.29261086 -96.85992432 69.80882263 C-95.02152091 70.55083651 -93.18061973 71.28668324 -91.33764648 72.01727295 C-88.26531519 73.23863398 -85.20312767 74.48304402 -82.14208984 75.73242188 C-76.61643813 77.98300218 -71.07779353 80.19913698 -65.53222656 82.40014648 C-63.2337216 83.31583112 -60.93785935 84.23817405 -58.64453125 85.16674805 C-55.28318186 86.52700037 -51.91404579 87.86598875 -48.54248047 89.20068359 C-47.52265076 89.61822403 -46.50282104 90.03576447 -45.4520874 90.46595764 C-39.98522691 92.60133702 -36.07945862 94.0249628 -30.37060547 92.19677734 C-28.07443583 89.3202951 -28.07443583 89.3202951 -28.24560547 85.75927734 C-29.02568195 81.89281281 -29.02568195 81.89281281 -32.72338867 80.26098633 C-38.00678388 77.81992724 -43.42725249 75.71216762 -48.85107422 73.60693359 C-49.94092117 73.18053085 -51.03076813 72.75412811 -52.15364075 72.31480408 C-55.62042924 70.9594324 -59.08923662 69.60931447 -62.55810547 68.25927734 C-64.86878432 67.35662032 -67.17933244 66.45362857 -69.48974609 65.55029297 C-74.86959937 63.44796756 -80.25219373 61.35278984 -85.63616943 59.26104736 C-88.02931229 58.32961208 -90.42042574 57.39325519 -92.81054688 56.45410156 C-93.98149902 55.99664551 -95.15245117 55.53918945 -96.35888672 55.06787109 C-97.30932861 54.69460693 -98.25977051 54.32134277 -99.23901367 53.93676758 C-102.6213251 52.76258525 -104.43619643 53.17937113 -107.37060547 55.19677734 Z M36.26153564 71.62524414 C34.51000493 72.33828468 32.75768635 73.04939298 31.00457764 73.75854492 C28.522911 74.7633388 26.04453923 75.77586347 23.56689453 76.79052734 C22.82323639 77.09015381 22.07957825 77.38978027 21.31338501 77.69848633 C14.97096399 80.13725903 14.97096399 80.13725903 10.69189453 85.07177734 C10.60216351 88.12263204 11.90821107 89.74740089 13.62939453 92.19677734 C13.95939453 92.52677734 14.28939453 92.85677734 14.62939453 93.19677734 C20.45964889 92.78737067 25.19910236 91.4654239 30.55517578 89.20458984 C31.66165215 88.75160019 31.66165215 88.75160019 32.79048157 88.28945923 C35.17821691 87.30947563 37.56005247 86.3159884 39.94189453 85.32177734 C41.59241858 84.64025324 43.24330093 83.95959627 44.89453125 83.27978516 C47.39407823 82.25012869 49.893134 81.21937744 52.39050293 80.18444824 C57.5665406 78.03972081 62.75579235 75.93261951 67.96142578 73.86083984 C69.21563309 73.35951737 70.46978535 72.85805714 71.72387695 72.35644531 C74.02804989 71.43643324 76.33412677 70.52117128 78.64233398 69.61132812 C79.66157959 69.20124512 80.6808252 68.79116211 81.73095703 68.36865234 C82.61090332 68.01899414 83.49084961 67.66933594 84.39746094 67.30908203 C86.69000621 66.16657096 88.08850725 65.23994976 89.62939453 63.19677734 C89.78964852 59.65099049 89.78964852 59.65099049 88.62939453 56.19677734 C78.62134595 48.44053969 47.55346706 67.02402743 36.26153564 71.62524414 Z M-14.37060547 130.19677734 C-16.48406279 132.31023466 -15.53866129 137.04490806 -15.54760742 139.9675293 C-15.55417862 140.88783936 -15.56074982 141.80814941 -15.56752014 142.75634766 C-15.58730518 145.81591869 -15.59892723 148.87544053 -15.60888672 151.93505859 C-15.61296225 152.97724234 -15.61703777 154.01942608 -15.6212368 155.09319115 C-15.6421197 160.60908182 -15.65641182 166.12494745 -15.66577148 171.64086914 C-15.67684097 177.34764791 -15.71124094 183.05403729 -15.75094318 188.76067829 C-15.77705034 193.14009847 -15.78545807 197.51942508 -15.78905296 201.89891624 C-15.79393416 204.00290749 -15.80559144 206.10689413 -15.82409096 208.21080971 C-15.84835699 211.1534701 -15.84754028 214.09511264 -15.84057617 217.0378418 C-15.85338623 217.91020981 -15.86619629 218.78257782 -15.87939453 219.68138123 C-15.84610994 223.5324016 -15.81918835 225.55572174 -13.5677948 228.77311707 C-11.29978032 230.53287969 -11.29978032 230.53287969 -7.74560547 230.13427734 C-4.11543623 229.52169284 -4.11543623 229.52169284 -2.37060547 226.19677734 C-2.17024337 223.19749101 -2.08732407 220.29080144 -2.09594727 217.29077148 C-2.09083633 216.37992294 -2.0857254 215.4690744 -2.08045959 214.53062439 C-2.06653915 211.51432762 -2.0675222 208.49825871 -2.06982422 205.48193359 C-2.06593865 203.38829971 -2.06160427 201.29466661 -2.05683899 199.20103455 C-2.04937151 194.81034796 -2.0496719 190.41974178 -2.05493164 186.02905273 C-2.0607271 180.39860761 -2.04379585 174.76849136 -2.02058697 169.13810062 C-2.00586509 164.81357393 -2.00497582 160.48912671 -2.00809669 156.16457939 C-2.00758271 154.08851915 -2.00233055 152.01245454 -1.99228477 149.93641853 C-1.97996767 147.03478668 -1.9866837 144.13379904 -1.99829102 141.23217773 C-1.99064728 140.37230255 -1.98300354 139.51242737 -1.97512817 138.62649536 C-2.01264044 133.95230818 -2.01264044 133.95230818 -3.77668762 129.69065857 C-7.73498102 125.98079347 -10.22620324 127.2844947 -14.37060547 130.19677734 Z " fill="#FFFFFF" transform="translate(120.37060546875,2.80322265625)"/>
</svg>
